<svg width="133" height="61" viewBox="0 0 133 61" fill="none" xmlns="http://www.w3.org/2000/svg">
<g clip-path="url(#clip0_47_364)">
<path d="M78.4814 60.6896H80.9957V51.0794C80.9957 48.2297 83.0859 46.7442 85.4185 46.7442C87.9631 46.7442 89.1445 47.9872 89.1445 50.7762V60.6896H91.6588V50.9581C91.6588 46.3501 89.3565 44.5615 86.0849 44.5615C83.4797 44.5615 81.7227 45.8651 80.9957 47.3505V44.8343H78.4814V60.6896Z" fill="black"/>
<path d="M101.251 60.9624C104.826 60.9624 107.461 59.295 108.006 56.1119H105.492C105.159 57.9611 103.735 58.8706 101.281 58.8706C98.04 58.8706 96.3133 56.8698 96.1921 53.2622H108.128V52.4436C108.128 46.7745 104.674 44.5615 101.009 44.5615C96.6465 44.5615 93.5869 47.8962 93.5869 52.6862V52.9287C93.5869 57.8096 96.7677 60.9624 101.251 60.9624ZM96.283 51.231C96.7071 48.4116 98.4338 46.6533 101.009 46.6533C103.614 46.6533 105.31 47.9569 105.553 51.231H96.283Z" fill="black"/>
<path d="M114.284 60.9624C116.617 60.9624 118.041 60.1742 119.222 58.6887V60.6896H121.736V50.2306C121.736 45.8044 118.98 44.5615 115.95 44.5615C112.891 44.5615 110.013 45.8954 109.68 49.503H112.194C112.436 47.5628 113.648 46.6533 115.829 46.6533C118.253 46.6533 119.222 47.7143 119.222 50.2306V51.3826H116.95C112.891 51.3826 109.013 52.6255 109.013 56.2938C109.013 59.5376 111.346 60.9624 114.284 60.9624ZM114.527 58.9616C112.315 58.9616 111.528 57.9308 111.528 56.2938C111.528 53.9594 113.86 53.1712 117.041 53.1712H119.222V55.1418C119.222 57.5974 117.192 58.9616 114.527 58.9616Z" fill="black"/>
<path d="M124.858 60.6896H127.372V51.9889C127.372 48.0781 129.402 47.0777 132.582 46.9261V44.5615C129.735 44.6524 128.372 45.8954 127.372 47.684V44.8343H124.858V60.6896Z" fill="black"/>
<path d="M8.32236 60.9625C12.1623 60.9625 14.9356 58.4005 15.2709 54.9541H12.9242C12.65 57.5466 10.6081 58.858 8.35284 58.858C5.27476 58.858 3.14144 56.7841 3.14144 52.8802V52.6362C3.14144 48.8848 5.36619 46.5668 8.26141 46.5668C10.4557 46.5668 12.2842 47.5123 12.6804 50.0437H15.1795C14.6918 45.9873 11.5833 44.4624 8.26141 44.4624C3.99477 44.4624 0.520508 47.7563 0.520508 52.6362V52.8802C0.520508 57.821 3.87287 60.9625 8.32236 60.9625Z" fill="black"/>
<path d="M23.9055 58.858C20.6751 58.858 18.6941 56.4791 18.6941 52.8497V52.6057C18.6941 48.9458 20.7055 46.5668 23.9055 46.5668C27.075 46.5668 29.1169 48.9458 29.1169 52.6362V52.8497C29.1169 56.4486 27.1055 58.858 23.9055 58.858ZM23.875 60.9625C28.416 60.9625 31.7378 57.638 31.7378 52.8192V52.5752C31.7378 47.7868 28.416 44.4624 23.9055 44.4624C19.3951 44.4624 16.0732 47.8173 16.0732 52.6057V52.8497C16.0732 57.516 19.3341 60.9625 23.875 60.9625Z" fill="black"/>
<path d="M39.829 60.9626C42.1452 60.9626 44.3699 59.4986 45.2842 57.9431V60.6881H47.8137V0.0527344H45.2842V47.2989C44.3699 45.7434 42.7242 44.4625 40.0728 44.4625C35.6843 44.4625 32.6367 47.9089 32.6367 52.7888V53.0328C32.6367 58.0041 35.6538 60.9626 39.829 60.9626ZM40.1033 58.8581C37.4214 58.8581 35.2576 56.9367 35.2576 52.9108V52.6668C35.2576 48.7934 37.1471 46.5669 40.3166 46.5669C43.4252 46.5669 45.3756 48.4884 45.3756 52.5753V52.8193C45.3756 56.9062 43.0594 58.8581 40.1033 58.8581Z" fill="black"/>
<path d="M57.6254 60.9625C61.2216 60.9625 63.873 59.285 64.4216 56.0826H61.8921C61.5568 57.943 60.1245 58.858 57.6559 58.858C54.395 58.858 52.6579 56.8451 52.536 53.2157H64.5435V52.3922C64.5435 46.6888 61.0692 44.4624 57.3816 44.4624C52.9931 44.4624 49.915 47.8173 49.915 52.6362V52.8802C49.915 57.7905 53.115 60.9625 57.6254 60.9625ZM52.6274 51.1722C53.054 48.3358 54.7912 46.5668 57.3816 46.5668C60.0026 46.5668 61.7092 47.8783 61.953 51.1722H52.6274Z" fill="black"/>
<path d="M66.6572 60.6881H69.2172V0.0527344H66.6572V60.6881Z" fill="black"/>
<path d="M72.627 60.6881H75.1565V44.737H72.627V60.6881ZM73.846 41.4125C74.7603 41.4125 75.5222 40.6501 75.5222 39.7351C75.5222 38.8201 74.7603 38.0576 73.846 38.0576C72.9318 38.0576 72.1699 38.8201 72.1699 39.7351C72.1699 40.6501 72.9318 41.4125 73.846 41.4125Z" fill="black"/>
</g>
<defs>
<clipPath id="clip0_47_364">
<rect width="133" height="61" fill="white"/>
</clipPath>
</defs>
</svg>
