<svg width="26" height="26" viewBox="0 0 26 26" fill="none" xmlns="http://www.w3.org/2000/svg">
<path d="M20.4239 3.2251C20.9941 3.2251 21.541 3.45161 21.9442 3.85479C22.3473 4.25798 22.5738 4.80482 22.5738 5.37501V20.4244C22.5738 20.9946 22.3473 21.5415 21.9442 21.9446C21.541 22.3478 20.9941 22.5743 20.4239 22.5743H5.37452C4.80433 22.5743 4.25749 22.3478 3.8543 21.9446C3.45112 21.5415 3.22461 20.9946 3.22461 20.4244V5.37501C3.22461 4.80482 3.45112 4.25798 3.8543 3.85479C4.25749 3.45161 4.80433 3.2251 5.37452 3.2251H20.4239ZM19.8865 19.8869V14.1897C19.8865 13.2603 19.5172 12.3689 18.86 11.7117C18.2029 11.0545 17.3115 10.6853 16.3821 10.6853C15.4684 10.6853 14.4042 11.2443 13.8882 12.0827V10.8895H10.8891V19.8869H13.8882V14.5874C13.8882 13.7597 14.5547 13.0825 15.3824 13.0825C15.7815 13.0825 16.1643 13.241 16.4465 13.5232C16.7288 13.8055 16.8873 14.1883 16.8873 14.5874V19.8869H19.8865ZM7.39545 9.20186C7.87441 9.20186 8.33375 9.0116 8.67243 8.67292C9.01111 8.33424 9.20137 7.8749 9.20137 7.39593C9.20137 6.39622 8.39516 5.57925 7.39545 5.57925C6.91363 5.57925 6.45155 5.77065 6.11086 6.11135C5.77017 6.45204 5.57877 6.91412 5.57877 7.39593C5.57877 8.39564 6.39573 9.20186 7.39545 9.20186ZM8.88964 19.8869V10.8895H5.912V19.8869H8.88964Z" fill="black"/>
</svg>
