<svg width="26" height="27" viewBox="0 0 26 27" fill="none" xmlns="http://www.w3.org/2000/svg">
<path d="M8.38544 2.9502H17.4155C20.8555 2.9502 23.6506 5.74522 23.6506 9.18525V18.2153C23.6506 19.869 22.9937 21.4549 21.8244 22.6242C20.6551 23.7935 19.0692 24.4504 17.4155 24.4504H8.38544C4.94541 24.4504 2.15039 21.6554 2.15039 18.2153V9.18525C2.15039 7.53161 2.8073 5.9457 3.9766 4.7764C5.14589 3.6071 6.7318 2.9502 8.38544 2.9502ZM8.17044 5.10021C7.14404 5.10021 6.15969 5.50795 5.43392 6.23372C4.70814 6.95949 4.30041 7.94385 4.30041 8.97025V18.4303C4.30041 20.5696 6.03117 22.3004 8.17044 22.3004H17.6305C18.6569 22.3004 19.6413 21.8926 20.367 21.1669C21.0928 20.4411 21.5006 19.4567 21.5006 18.4303V8.97025C21.5006 6.83098 19.7698 5.10021 17.6305 5.10021H8.17044ZM18.5443 6.71273C18.9007 6.71273 19.2425 6.8543 19.4945 7.10631C19.7465 7.35831 19.888 7.7001 19.888 8.05649C19.888 8.41288 19.7465 8.75467 19.4945 9.00667C19.2425 9.25868 18.9007 9.40025 18.5443 9.40025C18.1879 9.40025 17.8461 9.25868 17.5941 9.00667C17.3421 8.75467 17.2005 8.41288 17.2005 8.05649C17.2005 7.7001 17.3421 7.35831 17.5941 7.10631C17.8461 6.8543 18.1879 6.71273 18.5443 6.71273ZM12.9005 8.32524C14.326 8.32524 15.6932 8.89154 16.7012 9.89956C17.7092 10.9076 18.2755 12.2747 18.2755 13.7003C18.2755 15.1258 17.7092 16.493 16.7012 17.501C15.6932 18.509 14.326 19.0753 12.9005 19.0753C11.4749 19.0753 10.1078 18.509 9.09975 17.501C8.09173 16.493 7.52544 15.1258 7.52544 13.7003C7.52544 12.2747 8.09173 10.9076 9.09975 9.89956C10.1078 8.89154 11.4749 8.32524 12.9005 8.32524ZM12.9005 10.4753C12.0452 10.4753 11.2249 10.815 10.62 11.4198C10.0152 12.0247 9.67545 12.845 9.67545 13.7003C9.67545 14.5556 10.0152 15.3759 10.62 15.9807C11.2249 16.5855 12.0452 16.9253 12.9005 16.9253C13.7558 16.9253 14.5761 16.5855 15.1809 15.9807C15.7857 15.3759 16.1255 14.5556 16.1255 13.7003C16.1255 12.845 15.7857 12.0247 15.1809 11.4198C14.5761 10.815 13.7558 10.4753 12.9005 10.4753Z" fill="black"/>
</svg>
