<svg width="27" height="27" viewBox="0 0 27 27" fill="none" xmlns="http://www.w3.org/2000/svg">
<path d="M24.9443 7.25012C24.1165 7.62637 23.2243 7.87362 22.2997 7.99187C23.2458 7.42212 23.9768 6.51911 24.3208 5.43335C23.4285 5.97086 22.4395 6.34711 21.3967 6.56211C20.5475 5.6376 19.3542 5.1001 17.9997 5.1001C15.4734 5.1001 13.4094 7.16412 13.4094 9.71189C13.4094 10.0774 13.4524 10.4321 13.5277 10.7654C9.70064 10.5719 6.29286 8.73363 4.02459 5.94936C3.62684 6.62661 3.40109 7.42212 3.40109 8.26063C3.40109 9.86239 4.20734 11.2814 5.45435 12.0877C4.6911 12.0877 3.98159 11.8727 3.35809 11.5502V11.5824C3.35809 13.8184 4.9491 15.6889 7.05612 16.1082C6.37964 16.2933 5.66946 16.3191 4.98135 16.1834C5.27333 17.0999 5.84516 17.9017 6.61646 18.4764C7.38775 19.051 8.31973 19.3694 9.28139 19.387C7.65127 20.6775 5.63065 21.375 3.55159 21.365C3.18608 21.365 2.82058 21.3435 2.45508 21.3005C4.4976 22.612 6.92712 23.3753 9.52864 23.3753C17.9997 23.3753 22.6545 16.3447 22.6545 10.2494C22.6545 10.0451 22.6545 9.85164 22.6438 9.64739C23.5468 9.00238 24.3208 8.18537 24.9443 7.25012Z" fill="black"/>
</svg>
